<svg width="417" height="56" viewBox="0 0 417 56" fill="none" xmlns="http://www.w3.org/2000/svg">
<g clip-path="url(#clip0_6_2)">
<path d="M29.8 39.6H41V51.04L31.72 56.4H9.08L-0.2 51.04V4.96L9.08 -0.400003H31.72L41 4.96V16.4H29.8V9.2H11V46.8H29.8V39.6ZM62.3444 40.24V47.2H73.6244V40.24H62.3444ZM60.6644 56.4L51.3844 51.04V37.2L60.6644 31.84H73.6244V25.36H55.3844V16H75.3044L84.5844 21.36V56.4H79.3044L73.6244 53.12L67.9444 56.4H60.6644ZM121.298 25.36H107.538V56H96.5781V16H105.618L107.538 19.28L113.218 16H121.298V25.36ZM162.513 46.64V56H138.593L129.313 50.64V20.96L138.593 15.6H153.233L162.513 20.96V40.08H140.273V46.64H162.513ZM140.273 24.96V31.84H151.553V24.96H140.273ZM207.747 46.64V56H183.827L174.547 50.64V20.96L183.827 15.6H198.467L207.747 20.96V40.08H185.507V46.64H207.747ZM185.507 24.96V31.84H196.787V24.96H185.507ZM244.501 25.36H230.741V56H219.781V16H228.821L230.741 19.28L236.421 16H244.501V25.36Z" fill="black"/>
<path d="M253.316 56V-3.8147e-06H282.836L292.116 5.36V30.32L282.836 35.68H264.516V56H253.316ZM264.516 9.6V26.08H280.916V9.6H264.516ZM311.876 40.24V47.2H323.156V40.24H311.876ZM310.196 56.4L300.916 51.04V37.2L310.196 31.84H323.156V25.36H304.916V16H324.836L334.116 21.36V56.4H328.836L323.156 53.12L317.476 56.4H310.196ZM342.909 25.36V16H350.269V9.28L361.229 2.96V16H370.029V25.36H361.229V46.64H370.029V56H359.549L350.269 50.64V25.36H342.909ZM391.366 56H380.406V-2.4H391.366V18.88L397.046 15.6H407.526L416.806 20.96V56H405.846V24.96H391.366V56Z" fill="#FCAE04"/>
</g>
<defs>
<clipPath id="clip0_6_2">
<rect width="417" height="56" fill="white"/>
</clipPath>
</defs>
</svg>
